<?xml version="1.0" encoding="utf-8"?>
<!-- Generator: Adobe Illustrator 19.2.1, SVG Export Plug-In . SVG Version: 6.00 Build 0)  -->
<svg version="1.1" id="Layer_1" xmlns="http://www.w3.org/2000/svg" xmlns:xlink="http://www.w3.org/1999/xlink" x="0px" y="0px"
	 viewBox="0 0 1480.7 1024" style="enable-background:new 0 0 1480.7 1024;" xml:space="preserve">
<style type="text/css">
	.st0{fill:#ED1C24;}
	.st1{fill:#FFFFFF;}
</style>
<g>
	<g>
		<path class="st0" d="M1165,0H315.6C141.6,0,0,130.5,0,291v733h1165c173.9,0,315.6-130.5,315.6-291.1V291
			C1480.7,130.5,1339,0,1165,0z"/>
		<path class="st1" d="M573.9,681.6H535V506.2c0-8.5-1.2-15.9-3.6-22.3c-2.4-6.3-5.7-11.5-10-15.7s-9.2-7.3-15-9.4
			c-5.8-1.9-11.9-3-18.4-3c-23.8,0-47,5.8-69.6,17.2c2.1,9.2,3.2,19.3,3.2,30.4v178.2h-38.8V506.7c0-17.4-4.1-30.2-12.2-38.5
			c-8.1-8.2-18.6-12.4-31.6-12.4c-10.8,0-23.1,2.3-36.9,6.6c-13.8,4.5-26.3,10.1-37.6,16.7v202.5h-38.8V459
			c-0.4-10.7-1.1-20.5-2.2-29.3h36.2c1.1,5.1,2.1,13.2,3,24.3c11.9-7.8,24.9-14.4,38.7-19.9c13.8-5.5,29.7-8.3,47.3-8.3
			c11,0,21.6,2,31.9,6.1c10.2,4,19.3,11.4,27.2,22.2c32.5-18.9,63.4-28.2,92.9-28.2c12.5,0,23.3,2,32.6,5.9
			c9.3,4,16.9,9.4,22.8,16.3c6,6.9,10.5,15.1,13.4,24.6c3,9.4,4.4,19.4,4.4,30.2L573.9,681.6L573.9,681.6z"/>
		<path class="st1" d="M683.8,645.4c-19.6,0-35.4-14.6-35.4-32.6c0-17.8,15.8-32.6,35.4-32.6c19.6,0,35.4,14.8,35.4,32.6
			C719.1,630.8,703.4,645.4,683.8,645.4z"/>
		<path class="st1" d="M683.8,538.4c-19.6,0-35.4-14.7-35.4-32.9c0-17.8,15.8-32.7,35.4-32.7c19.6,0,35.4,14.9,35.4,32.7
			C719.1,523.7,703.4,538.4,683.8,538.4z"/>
		<path class="st1" d="M895.8,683.8c-10.5,1.4-18.9,2-25,2c-20.8,0-37-4.9-48.5-14.7c-11.6-9.8-17.3-27.9-17.3-54.4V461.6h-38.4
			v-31.9H805V366h38.8v63.7h64.7l-4.1,31.9h-60.5v145.5c0,14.5,2.5,26.1,7.5,34.8s12.9,13,23.5,13c5.7,0,12.9-0.8,21.6-2.4
			c8.7-1.7,14.5-2.9,17.3-3.6l2.9,31.9C913.3,681.5,906.4,682.5,895.8,683.8z"/>
		<path class="st1" d="M1109.5,672.2c-16.6,9-38.4,13.6-65.3,13.6c-34.7,0-62.7-11.7-83.8-35.1c-21.2-23.4-31.8-56.4-31.8-99.1
			c0-37.1,9.6-67.4,28.8-90.8c19.1-23.4,47.3-35.1,84.3-35.1c31.3,0,56.1,8.1,74.2,24.4c18.2,16.4,28.5,39.2,30.7,68.3
			c1,11.1,1.3,22.7,0.8,34.8h-178c0,27.8,6.7,51.8,20.2,71.7c13.4,20,31.8,29.9,55.1,29.9c16.9,0,31.6-3.3,44.3-10
			c12.6-6.7,24.2-16.6,34.9-29.9l28.1,21.5C1140.2,651.2,1126.1,663.1,1109.5,672.2z"/>
		<path class="st1" d="M1270.9,678.8c-3.6,1.2-7.4,2.3-11.3,3.4c-4,1-7.9,1.8-11.8,2.3s-7.7,0.8-11,0.8c-12.8,0-22.8-3.9-29.9-11.6
			c-7.1-7.8-10.6-19.3-10.6-34.8V316.1h38.8v314c0,9.5,1.9,15.9,5.9,19.4c3.9,3.4,10.8,5,20.6,5c1.4,0,3.3,0,5.8-0.1
			c2.5-0.3,5.1-0.5,7.7-0.8l5.7,21.5C1277.7,676.3,1274.4,677.6,1270.9,678.8z"/>
		<path class="st0" d="M1092.1,476.3c-9.9-14.4-26.8-21.6-50.9-21.6c-23.1,0-40.6,7.5-52.4,22.5c-11.8,15-18.1,32-18.9,51h137.9
			C1107.2,508,1102,490.8,1092.1,476.3z"/>
	</g>
</g>
</svg>
