<?xml version="1.0" encoding="utf-8"?>
<!-- Generator: Adobe Illustrator 19.2.1, SVG Export Plug-In . SVG Version: 6.00 Build 0)  -->
<svg version="1.1" id="Layer_1" xmlns="http://www.w3.org/2000/svg" xmlns:xlink="http://www.w3.org/1999/xlink" x="0px" y="0px"
	 viewBox="0 0 3802.2 1024" style="enable-background:new 0 0 3802.2 1024;" xml:space="preserve">
<style type="text/css">
	.st0{fill:#ED1C24;}
	.st1{fill:#FFFFFF;}
</style>
<g>
	<path class="st0" d="M1148,0.6H311C139.5,0.6,0,131,0,291.6v733h1148c171.4,0,311-130.5,311-291.1V291.6
		C1459,131,1319.4,0.6,1148,0.6z"/>
	<g>
		<g>
			<path class="st1" d="M638.9,506.1c0-17.8,15.6-32.7,34.9-32.7c19.3,0,34.9,14.9,34.9,32.7c0,18.2-15.6,32.9-34.9,32.9
				C654.5,539,638.9,524.3,638.9,506.1z"/>
			<path class="st1" d="M638.9,613.4c0-17.8,15.6-32.6,34.9-32.6c19.3,0,34.9,14.8,34.9,32.6c0,18-15.6,32.6-34.9,32.6
				C654.5,646,638.9,631.4,638.9,613.4z"/>
		</g>
		<g>
			<path class="st1" d="M255.9,430.3c1.1,5.1,2.1,13.2,2.9,24.3c11.8-7.8,24.5-14.4,38.1-20c13.6-5.5,29.2-8.3,46.6-8.3
				c10.8,0,21.3,2,31.4,6.1c10.1,4,19,11.4,26.8,22.2c32-18.9,62.5-28.2,91.6-28.2c12.3,0,23,2,32.1,5.9c9.1,4,16.7,9.4,22.5,16.3
				c5.9,6.9,10.3,15.1,13.2,24.6c2.9,9.4,4.4,19.4,4.4,30.2v178.9h-38.3V506.8c0-8.5-1.2-15.9-3.5-22.3c-2.4-6.3-5.6-11.5-9.8-15.7
				c-4.2-4.1-9.1-7.3-14.8-9.4c-5.7-1.9-11.7-3-18.2-3c-23.4,0-46.3,5.7-68.6,17.2c2.1,9.2,3.1,19.3,3.1,30.4v178.2h-38.3V507.2
				c0-17.4-4-30.2-12-38.5c-8-8.2-18.4-12.3-31.2-12.3c-10.7,0-22.7,2.3-36.3,6.6c-13.6,4.5-25.9,10-37.1,16.7v202.5h-38.2V459.6
				c-0.4-10.7-1.1-20.5-2.2-29.4H255.9z"/>
			<path class="st1" d="M755.3,430.3h37.8v-63.7h38.2v63.7h63.7l-4.1,31.9h-59.6v145.5c0,14.5,2.5,26,7.4,34.8
				c4.9,8.7,12.7,13,23.1,13c5.6,0,12.8-0.8,21.3-2.4c8.6-1.7,14.3-2.8,17-3.6l2.9,31.9c-3.2,0.7-10,1.6-20.5,2.9
				c-10.4,1.4-18.6,2-24.6,2c-20.5,0-36.5-4.9-47.8-14.7c-11.4-9.8-17.1-27.9-17.1-54.4V462.2h-37.8V430.3z"/>
			<path class="st1" d="M1135,637.2c-11.5,14.6-25.4,26.4-41.8,35.6c-16.4,9-37.8,13.6-64.3,13.6c-34.2,0-61.8-11.7-82.6-35.1
				c-20.9-23.4-31.3-56.4-31.3-99.1c0-37.1,9.5-67.4,28.4-90.8c18.9-23.4,46.6-35.1,83.1-35.1c30.8,0,55.2,8.1,73.2,24.4
				c17.9,16.4,28.1,39.2,30.3,68.4c1,11.1,1.2,22.7,0.7,34.8H955.3c0,27.8,6.6,51.8,19.9,71.7c13.2,20,31.3,29.9,54.3,29.9
				c16.7,0,31.2-3.3,43.6-10c12.4-6.7,23.8-16.7,34.4-29.9L1135,637.2z M1026,455.2c-22.8,0-40,7.5-51.6,22.5
				c-11.7,15-17.8,32-18.6,51h135.9c-0.6-20.1-5.8-37.3-15.5-51.8C1066.4,462.5,1049.7,455.2,1026,455.2z"/>
			<path class="st1" d="M1178.6,316.6h38.3v314c0,9.5,1.9,15.9,5.8,19.4c3.9,3.4,10.7,5.1,20.3,5.1c1.3,0,3.2,0,5.7-0.1
				c2.5-0.3,5-0.5,7.6-0.8l5.6,21.4c-2.9,1.2-6.2,2.5-9.7,3.8c-3.6,1.2-7.3,2.3-11.1,3.4c-3.9,1-7.7,1.8-11.6,2.3
				c-3.9,0.5-7.6,0.8-10.9,0.8c-12.6,0-22.5-3.9-29.5-11.6c-7-7.8-10.5-19.3-10.5-34.8V316.6z"/>
		</g>
	</g>
</g>
<g>
	<path class="st0" d="M1637.9,379.2v259.1h-18.1V379.2H1637.9z"/>
	<path class="st0" d="M1698.6,498c0-16.9-0.8-29.6-1.5-44.2h16.9l1.5,32.7h0.8c11.5-21.2,29.2-36.9,59.6-36.9
		c25.8,0,45.4,16.9,53.1,40.4h0.8c5.4-11.1,11.9-19.2,18.8-25c11.9-10,24.6-15.4,44.2-15.4c18.1,0,60,10,60,80v108.8h-18.1V531.4
		c0-41.5-16.2-66.1-48-66.1c-23.1,0-41.5,16.9-48.4,36.5c-1.9,5.4-3.5,11.5-3.5,18.1v118.4h-18.1V523c0-33.4-16.1-57.7-45.7-57.7
		c-25,0-44.2,20-51.1,41.5c-1.9,5-3.1,11.5-3.1,17.7v113.8h-18.1V498z"/>
	<path class="st0" d="M2120.2,594.5c0,14.6,0.8,29.6,2.7,43.8h-16.5l-2.7-26.5h-1.2c-8.8,14.2-29.2,30.7-58.8,30.7
		c-36.9,0-54.2-26.1-54.2-50.7c0-42.6,37.7-68.4,112.6-67.6v-4.6c0-18.4-3.5-54.9-47.3-54.6c-16.2,0-33.1,4.2-46.1,13.9l-5.8-13.5
		c16.5-11.1,37.3-15.7,53.8-15.7c53.4,0,63.4,40,63.4,73V594.5z M2102.2,539.5c-40.4-1.2-93.4,5-93.4,49.2
		c0,26.5,17.7,38.4,36.9,38.4c30.7,0,48-18.8,54.6-36.9c1.1-3.9,1.9-7.7,1.9-11.1V539.5z"/>
	<path class="st0" d="M2197.8,413v40.7h52.7v14.6h-52.7v119.9c0,23.4,7.3,38.4,26.9,38.4c9.6,0,16.5-1.5,21.2-3.1l2.3,14.2
		c-6.1,2.7-14.6,4.6-25.7,4.6c-13.5,0-24.6-4.6-31.5-13.4c-8.5-9.6-11.5-25-11.5-43.8V468.4h-31.1v-14.6h31.1v-33.8L2197.8,413z"/>
	<path class="st0" d="M2284,544.1c0,59.2,32.3,82.3,70.3,82.3c26.9,0,40.7-5.4,51.1-10.4l4.6,14.6c-6.9,3.8-25.8,11.9-58.1,11.9
		c-53.1,0-86.1-38.8-86.1-93c0-61.5,35.4-99.9,83-99.9c60.4,0,71.9,56.9,71.9,83.4c0,5,0,8.1-0.8,11.1H2284z M2401.6,529.5
		c0.4-25.8-10.4-65-54.9-65c-40.8,0-58.4,36.5-61.5,65H2401.6z"/>
	<path class="st0" d="M2536.5,512.6c0-23.1-0.8-41.5-1.6-58.8h17.3l1.6,35h0.8c13.1-24.6,35.7-39.2,68-39.2
		c47.2,0,79.2,39.2,79.2,93.4c0,66.1-39.2,99.5-83.8,99.5c-26.5,0-50-11.9-62.6-34.2h-0.8v106.1h-18.1V512.6z M2554.6,565.6
		c0,5,0.8,10,1.5,14.6c7.7,28.4,32.3,46.9,60.7,46.9c42.2,0,66.5-34.2,66.5-83.4c0-41.5-23.1-79.2-65-79.2
		c-26.9,0-53,18.8-61.1,49.2c-1.1,5-2.7,10.8-2.7,15.8V565.6z"/>
	<path class="st0" d="M2741,509.1c0-18.5-0.8-37.7-1.6-55.4h16.9l0.8,37.3h0.8c8-23.1,27.3-41.5,52.6-41.5c2.3,0,5,0.4,7.3,0.8V468
		c-2.7-0.7-5.4-0.7-8.8-0.7c-25.4,0-43.5,21.9-48.5,51.5c-0.7,5.4-1.5,11.5-1.5,17.7v101.9h-18V509.1z"/>
	<path class="st0" d="M2873.2,401.1c0,8.5-5.8,15.7-15.4,15.7c-8.5,0-14.2-7.3-14.2-15.7c0-8.5,6.5-16.1,15-16.1
		C2867.4,385,2873.2,392.3,2873.2,401.1z M2849.3,638.3V453.8h18v184.5H2849.3z"/>
	<path class="st0" d="M2872,703.6c15.8-0.8,30-5.4,38.5-15.4c9.6-11.5,13.8-26.1,13.8-74.9V453.8h18.1v171.8
		c0,33.1-3.5,55.8-19.6,73.1c-13,14.6-36.5,20-48.4,20L2872,703.6z M2948.1,401.1c0,8.1-5.4,15.7-15.4,15.7
		c-8.5,0-14.2-7.7-14.2-15.7c0-8.5,6.5-16.1,15.4-16.1C2942.4,385,2948.1,392.7,2948.1,401.1z"/>
	<path class="st0" d="M3111.1,594.5c0,14.6,0.8,29.6,2.7,43.8h-16.5l-2.7-26.5h-1.2c-8.8,14.2-29.2,30.7-58.8,30.7
		c-36.9,0-54.2-26.1-54.2-50.7c0-42.6,37.7-68.4,112.6-67.6v-4.6c0-18.4-3.4-54.9-47.3-54.6c-16.2,0-33.1,4.2-46.1,13.9l-5.8-13.5
		c16.5-11.1,37.3-15.7,53.8-15.7c53.5,0,63.4,40,63.4,73V594.5z M3093,539.5c-40.4-1.2-93.4,5-93.4,49.2c0,26.5,17.7,38.4,36.9,38.4
		c30.8,0,48.1-18.8,54.6-36.9c1.1-3.9,1.9-7.7,1.9-11.1V539.5z"/>
	<path class="st0" d="M3188.7,413v40.7h52.7v14.6h-52.7v119.9c0,23.4,7.3,38.4,26.9,38.4c9.6,0,16.5-1.5,21.2-3.1l2.3,14.2
		c-6.1,2.7-14.6,4.6-25.7,4.6c-13.5,0-24.6-4.6-31.5-13.4c-8.5-9.6-11.5-25-11.5-43.8V468.4h-31.1v-14.6h31.1v-33.8L3188.7,413z"/>
	<path class="st0" d="M3274.8,544.1c0,59.2,32.3,82.3,70.3,82.3c26.9,0,40.8-5.4,51.1-10.4l4.6,14.6c-6.9,3.8-25.8,11.9-58,11.9
		c-53.1,0-86.1-38.8-86.1-93c0-61.5,35.4-99.9,83-99.9c60.4,0,71.9,56.9,71.9,83.4c0,5,0,8.1-0.7,11.1H3274.8z M3392.4,529.5
		c0.4-25.8-10.4-65-54.9-65c-40.8,0-58.4,36.5-61.5,65H3392.4z"/>
	<path class="st0" d="M3450.9,365.4h18v272.9h-18V365.4z"/>
	<path class="st0" d="M3474.7,703.6c15.8-0.8,30-5.4,38.5-15.4c9.6-11.5,13.8-26.1,13.8-74.9V453.8h18.1v171.8
		c0,33.1-3.5,55.8-19.6,73.1c-13,14.6-36.5,20-48.4,20L3474.7,703.6z M3550.8,401.1c0,8.1-5.4,15.7-15.4,15.7
		c-8.5,0-14.2-7.7-14.2-15.7c0-8.5,6.5-16.1,15.4-16.1C3545,385,3550.8,392.7,3550.8,401.1z"/>
	<path class="st0" d="M3601.9,544.1c0,59.2,32.3,82.3,70.3,82.3c26.9,0,40.8-5.4,51.1-10.4l4.6,14.6c-6.9,3.8-25.8,11.9-58,11.9
		c-53.1,0-86.1-38.8-86.1-93c0-61.5,35.4-99.9,83-99.9c60.4,0,71.9,56.9,71.9,83.4c0,5,0,8.1-0.7,11.1H3601.9z M3719.5,529.5
		c0.4-25.8-10.4-65-54.9-65c-40.8,0-58.4,36.5-61.5,65H3719.5z"/>
	<path class="st0" d="M3786,642.5c-8.5,0-15-7.7-14.6-16.9c0-10,6.1-17.3,15.4-17.3c9.2,0,15.4,7.3,15.4,17.3
		c0,9.2-6.2,16.9-15.7,16.9H3786z M3778.7,570.2l-3.4-191h22.3l-3.5,191H3778.7z"/>
</g>
</svg>
